# xmcd CD database file
#
# Track frame offsets:
#	150
#	23357
#	57985
#	82737
#	115972
#	137527
#	160160
#	190012
#	215330
#	234195
#
# Disc length: 3597 seconds
#
# Revision: 1
# Processed by: cddbd v1.5.2PL0 Copyright (c) Steve Scherf et al.
# Submitted via: CDex 1.51
#
DISCID=6e0e0b0a
DTITLE=Vertu'/Stanley Clarke and Lenny White - Vertu'
DYEAR=1999
DGENRE=Jazz
TTITLE0=V-Wave
TTITLE1=On Top Of The Rain
TTITLE2=Anoche'
TTITLE3=The Call
TTITLE4=Topasio Es Puro Corazon, Part One
TTITLE5=Topasio, Part Two
TTITLE6=Danse Of The Harlequin
TTITLE7=Start It Again
TTITLE8=Marakesh
TTITLE9=Toys
EXTD=YEAR: 1999
EXTT0=
EXTT1=
EXTT2=
EXTT3=
EXTT4=
EXTT5=
EXTT6=
EXTT7=
EXTT8=
EXTT9=
PLAYORDER=
